<?xml version="1.0"?>
<svg xmlns="http://www.w3.org/2000/svg" xmlns:xlink="http://www.w3.org/1999/xlink" version="1.1" id="Capa_1" x="0px" y="0px" viewBox="0 0 511 511" style="enable-background:new 0 0 511 511;" xml:space="preserve" width="512px" height="512px" class=""><g><g>
	<path d="M494.492,404.794c-0.365-0.946-0.925-1.834-1.688-2.597l-183.98-183.98c-2.929-2.929-7.678-2.929-10.606,0   c-2.929,2.929-2.929,7.678,0,10.606l148.672,148.672c-1.982-0.557-3.971-1.074-5.961-1.517   c-23.481-5.224-42.918-1.594-54.731,10.219c-11.813,11.813-15.442,31.25-10.219,54.731c0.443,1.99,0.96,3.978,1.517,5.96   L228.823,298.217c-2.929-2.929-7.678-2.929-10.606,0c-2.929,2.929-2.929,7.678,0,10.606l183.98,183.98   c0.763,0.763,1.651,1.322,2.597,1.688C416.504,505.159,431.552,511,447.5,511c16.961,0,32.908-6.605,44.901-18.599   C504.395,480.407,511,464.462,511,447.5C511,431.553,505.158,416.505,494.492,404.794z M481.795,481.795   C472.634,490.955,460.455,496,447.5,496c-12.955,0-25.134-5.045-34.295-14.206c-9.976-9.976-18.841-27.295-22.585-44.124   c-4.011-18.031-1.758-32.926,6.183-40.867c5.36-5.36,13.887-8.128,24.411-8.128c5.066,0,10.597,0.642,16.456,1.945   c16.829,3.744,34.148,12.609,44.125,22.585C490.955,422.366,496,434.546,496,447.5S490.955,472.634,481.795,481.795z" data-original="#000000" class="active-path" data-old_color="#1d3645" fill="#1d3645"/>
	<path d="M58.2,68.806c1.464,1.464,3.384,2.197,5.303,2.197s3.839-0.732,5.303-2.197c2.929-2.929,2.929-7.678,0-10.606L12.803,2.197   c-2.929-2.929-7.678-2.929-10.606,0c-2.929,2.929-2.929,7.678,0,10.606L58.2,68.806z" data-original="#000000" class="active-path" data-old_color="#1d3645" fill="#1d3645"/>
	<path d="M362.197,372.803c1.464,1.464,3.384,2.197,5.303,2.197s3.839-0.732,5.303-2.197c2.929-2.929,2.929-7.678,0-10.606   L92.787,82.181c-2.929-2.929-7.678-2.929-10.606,0c-2.929,2.929-2.929,7.678,0,10.606L362.197,372.803z" data-original="#000000" class="active-path" data-old_color="#1d3645" fill="#1d3645"/>
	<path d="M194.212,164.818c1.464,1.464,3.384,2.197,5.303,2.197s3.839-0.732,5.303-2.197c2.929-2.929,2.929-7.678,0-10.606   l-16.015-16.015c-2.929-2.929-7.678-2.929-10.606,0c-2.929,2.929-2.929,7.678,0,10.606L194.212,164.818z" data-original="#000000" class="active-path" data-old_color="#1d3645" fill="#1d3645"/>
	<path d="M218.185,178.186c-2.929,2.929-2.929,7.678,0,10.606l176.012,176.011c1.464,1.464,3.384,2.197,5.303,2.197   s3.839-0.732,5.303-2.197c2.929-2.929,2.929-7.678,0-10.606L228.792,178.186C225.863,175.257,221.114,175.257,218.185,178.186z" data-original="#000000" class="active-path" data-old_color="#1d3645" fill="#1d3645"/>
	<path d="M266.197,186.197c-2.929,2.929-2.929,7.678,0,10.606l8.008,8.008c1.464,1.464,3.384,2.197,5.303,2.197   s3.839-0.732,5.303-2.197c2.929-2.929,2.929-7.678,0-10.606l-8.008-8.008C273.875,183.268,269.126,183.268,266.197,186.197z" data-original="#000000" class="active-path" data-old_color="#1d3645" fill="#1d3645"/>
	<path d="M186.197,266.197c-2.929,2.929-2.929,7.678,0,10.606l8.008,8.008c1.464,1.464,3.384,2.197,5.303,2.197   s3.839-0.732,5.303-2.197c2.929-2.929,2.929-7.678,0-10.606l-8.008-8.008C193.875,263.268,189.126,263.268,186.197,266.197z" data-original="#000000" class="active-path" data-old_color="#1d3645" fill="#1d3645"/>
	<path d="M90.205,140.812c1.464,1.465,3.384,2.197,5.303,2.197s3.839-0.732,5.303-2.197c2.929-2.929,2.929-7.677,0-10.606   l-16.008-16.009c-2.929-2.93-7.678-2.929-10.606,0c-2.929,2.929-2.929,7.677,0,10.606L90.205,140.812z" data-original="#000000" class="active-path" data-old_color="#1d3645" fill="#1d3645"/>
	<path d="M359.5,407c1.919,0,3.839-0.732,5.303-2.197c2.929-2.929,2.929-7.678,0-10.606l-240-240c-2.929-2.929-7.678-2.929-10.606,0   c-2.929,2.929-2.929,7.678,0,10.606l240,240C355.661,406.268,357.581,407,359.5,407z" data-original="#000000" class="active-path" data-old_color="#1d3645" fill="#1d3645"/>
	<path d="M246.21,48.817c1.464,1.465,3.384,2.197,5.303,2.197s3.839-0.732,5.303-2.197c2.929-2.929,2.929-7.678,0-10.606   L220.803,2.197c-2.929-2.93-7.678-2.929-10.606,0c-2.929,2.929-2.929,7.678,0,10.606L246.21,48.817z" data-original="#000000" class="active-path" data-old_color="#1d3645" fill="#1d3645"/>
	<path d="M414.197,216.803c1.464,1.464,3.384,2.197,5.303,2.197s3.839-0.732,5.303-2.197c2.929-2.929,2.929-7.678,0-10.606l-144-144   c-2.929-2.929-7.678-2.929-10.606,0c-2.929,2.929-2.929,7.678,0,10.606L414.197,216.803z" data-original="#000000" class="active-path" data-old_color="#1d3645" fill="#1d3645"/>
	<path d="M310.192,72.799c1.464,1.465,3.384,2.197,5.303,2.197c1.919,0,3.839-0.732,5.303-2.197c2.929-2.929,2.929-7.678,0-10.606   l-39.995-39.996c-2.929-2.929-7.678-2.929-10.606,0c-2.929,2.929-2.929,7.678,0,10.606L310.192,72.799z" data-original="#000000" class="active-path" data-old_color="#1d3645" fill="#1d3645"/>
	<path d="M459.247,221.854c-7.479-0.19-14.448,1.74-19.504,6.796c-5.568,5.569-8.154,14.299-7.521,24.966L304.791,126.185   c-2.929-2.929-7.678-2.929-10.606,0c-2.929,2.929-2.929,7.678,0,10.606l148.012,148.012c0.455,0.455,0.958,0.831,1.488,1.145   c0.812,1.032,1.649,1.992,2.512,2.855c6.443,6.443,15.666,10.138,25.303,10.138s18.86-3.695,25.303-10.138   c13.479-13.479,13.479-37.127,0-50.606L344.81,86.204c-2.929-2.929-7.678-2.929-10.606,0c-2.929,2.929-2.929,7.678,0,10.606   L459.247,221.854z M486.197,278.197c-3.651,3.651-9.008,5.745-14.697,5.745s-11.046-2.094-14.697-5.745   c-4.046-4.046-7.692-12.363-9.072-20.696c-1.37-8.269-0.366-15.259,2.619-18.245c1.694-1.694,4.443-2.438,7.733-2.438   c8.792,0,21.442,5.313,28.114,11.984C493.888,256.495,493.888,270.505,486.197,278.197z" data-original="#000000" class="active-path" data-old_color="#1d3645" fill="#1d3645"/>
	<path d="M244.803,66.197c-2.928-2.929-7.677-2.929-10.606,0c-2.929,2.929-2.929,7.678,0,10.606l35.999,35.999   c1.464,1.465,3.384,2.197,5.303,2.197c1.919,0,3.839-0.732,5.303-2.197c2.929-2.929,2.929-7.678,0-10.606L244.803,66.197z" data-original="#000000" class="active-path" data-old_color="#1d3645" fill="#1d3645"/>
	<path d="M43.513,259.014c1.919,0,3.839-0.732,5.303-2.197c2.929-2.929,2.929-7.678,0-10.606l-36.013-36.014   c-2.929-2.93-7.678-2.929-10.606,0c-2.929,2.929-2.929,7.678,0,10.606l36.013,36.014C39.674,258.282,41.594,259.014,43.513,259.014   z" data-original="#000000" class="active-path" data-old_color="#1d3645" fill="#1d3645"/>
	<path d="M62.197,270.197c-2.929,2.929-2.929,7.678,0,10.606l144,144c1.464,1.464,3.384,2.197,5.303,2.197s3.839-0.732,5.303-2.197   c2.929-2.929,2.929-7.678,0-10.606l-144-144C69.875,267.268,65.126,267.268,62.197,270.197z" data-original="#000000" class="active-path" data-old_color="#1d3645" fill="#1d3645"/>
	<path d="M72.803,230.197c-2.929-2.929-7.678-2.929-10.606,0c-2.929,2.929-2.929,7.678,0,10.606l39.995,39.996   c1.464,1.465,3.384,2.197,5.303,2.197c1.919,0,3.839-0.732,5.303-2.197c2.929-2.929,2.929-7.678,0-10.606L72.803,230.197z" data-original="#000000" class="active-path" data-old_color="#1d3645" fill="#1d3645"/>
	<path d="M136.81,294.204c-2.929-2.929-7.678-2.929-10.606,0c-2.929,2.929-2.929,7.678,0,10.606l125.044,125.043   c-7.479-0.19-14.448,1.74-19.504,6.796c-5.987,5.987-8.018,15.307-7.449,25.038L96.791,334.185c-2.929-2.929-7.678-2.929-10.606,0   c-2.929,2.929-2.929,7.678,0,10.606l148.012,148.013c0.461,0.461,0.972,0.841,1.51,1.157c0.807,1.032,1.638,1.989,2.49,2.842   c6.443,6.443,15.666,10.139,25.303,10.139s18.86-3.695,25.303-10.139c13.479-13.479,13.479-37.126,0-50.606L136.81,294.204z    M278.197,486.196c-3.651,3.651-9.008,5.745-14.697,5.745s-11.046-2.094-14.697-5.745c-4.046-4.046-7.692-12.363-9.072-20.695   c-1.37-8.269-0.366-15.259,2.619-18.245c1.694-1.694,4.443-2.438,7.733-2.438c8.792,0,21.442,5.313,28.114,11.984   C285.888,464.495,285.888,478.505,278.197,486.196z" data-original="#000000" class="active-path" data-old_color="#1d3645" fill="#1d3645"/>
	<path d="M36.803,274.197c-2.928-2.93-7.677-2.929-10.606,0s-2.929,7.678,0,10.606l35.999,35.999   c1.464,1.465,3.384,2.197,5.303,2.197c1.919,0,3.839-0.732,5.303-2.197c2.929-2.929,2.929-7.678,0-10.606L36.803,274.197z" data-original="#000000" class="active-path" data-old_color="#1d3645" fill="#1d3645"/>
</g></g> </svg>
