<?xml version="1.0"?>
<svg xmlns="http://www.w3.org/2000/svg" xmlns:xlink="http://www.w3.org/1999/xlink" version="1.1" id="Capa_1" x="0px" y="0px" viewBox="0 0 503.774 503.774" style="enable-background:new 0 0 503.774 503.774;" xml:space="preserve" width="512px" height="512px" class=""><g><g>
	<g transform="translate(0 2)">
		<g>
			<path style="fill:#A4C2F7;" d="M45.38,219.63h38.639v134.295H45.38c-11.11,0-20.116-9.006-20.116-20.116v-94.064     C25.264,228.636,34.27,219.63,45.38,219.63z" data-original="#A4C2F7" class=""/>
			<path style="fill:#A4C2F7;" d="M352.609,493.213H151.166c0-29.965,38.442-54.725,88.131-58.25     c4.113-0.336,8.309-0.504,12.59-0.504C307.536,434.459,352.609,460.73,352.609,493.213z" data-original="#A4C2F7" class=""/>
		</g>
		<path style="fill:#AED0E4" d="M327.428,493.213H151.166c0-29.965,38.442-54.725,88.131-58.25    C288.986,438.488,327.428,463.249,327.428,493.213z" data-original="#E3E7F2" class="active-path" data-old_color="#E3E7F2"/>
		<path style="fill:#AED0E4" d="M151.166,219.63l26.199,26.199c4.722,4.722,11.127,7.375,17.805,7.375h31.537    c13.907,0,25.18,11.274,25.18,25.18s-11.274,25.18-25.18,25.18h-48.324c-6.678,0-13.083-2.653-17.805-7.375L84.018,219.63H151.166    z" data-original="#D4E1F4" class="" data-old_color="#D4E1F4"/>
		<path style="fill:#A4C2F7;" d="M251.887,278.425c-0.021,13.898-11.282,25.159-25.18,25.18h-25.18    c13.907,0,25.18-11.274,25.18-25.18s-11.274-25.18-25.18-25.18l25.18,0c6.681-0.009,13.091,2.641,17.815,7.365    C249.246,265.334,251.896,271.744,251.887,278.425z" data-original="#A4C2F7" class=""/>
		<g>
			<path style="fill:#AED0E4" d="M151.166,352.455v110.626c-0.016,16.635-13.497,30.116-30.132,30.132h-6.883     c-16.635-0.016-30.116-13.497-30.132-30.132V352.455H151.166z" data-original="#D4E1F4" class="" data-old_color="#D4E1F4"/>
			<polygon style="fill:#AED0E4" points="151.166,286.818 151.166,352.455 84.018,352.455 84.018,219.671    " data-original="#D4E1F4" class="" data-old_color="#D4E1F4"/>
		</g>
		<path style="fill:#A4C2F7;" d="M444.936,64.476h-58.754V30.902c-0.194-4.446-3.947-7.899-8.393-7.722H260.281    c-4.447-0.177-8.2,3.276-8.393,7.722v60.097c0.194,4.446,3.947,7.898,8.393,7.722h67.148v41.967    c-0.02,2.332,0.957,4.562,2.686,6.127c1.542,1.459,3.585,2.27,5.708,2.266h109.115c4.63-0.014,8.38-3.764,8.393-8.393V72.87    C453.316,68.24,449.566,64.49,444.936,64.476z" data-original="#A4C2F7" class=""/>
		<path style="fill:#AED0E4" d="M386.182,30.902v67.819H260.281c-4.447,0.176-8.199-3.276-8.393-7.722V30.902    c0.194-4.446,3.946-7.899,8.393-7.722h117.508C382.236,23.004,385.988,26.456,386.182,30.902z" data-original="#E3E7F2" class="active-path" data-old_color="#E3E7F2"/>
		<path style="fill:#A4C2F7;" d="M453.33,72.87v67.819c-0.014,4.63-3.764,8.38-8.393,8.393H335.822    c-2.123,0.004-4.166-0.807-5.708-2.266l56.068-48.094V64.476h58.754C449.566,64.49,453.316,68.24,453.33,72.87z" data-original="#A4C2F7" class=""/>
		<path style="fill:#AED0E4" d="M428.149,72.87v67.819c-0.014,4.63-3.764,8.38-8.393,8.393h-83.934    c-2.123,0.004-4.166-0.807-5.708-2.266l56.068-48.094V64.476h33.574C424.386,64.49,428.136,68.24,428.149,72.87z" data-original="#E3E7F2" class="active-path" data-old_color="#E3E7F2"/>
		<path style="fill:#AED0E4" d="M193.133,143.458c0.002,20.416-8.258,39.965-22.899,54.194    c-14.641,14.23-34.416,21.929-54.825,21.346c-39.846-1.571-71.787-33.513-73.359-73.359    c-1.175-40.792,30.271-75.137,71.009-77.555c1.511-0.084,3.022-0.168,4.532-0.168v58.754c-0.001,4.453,1.767,8.723,4.915,11.872    c3.148,3.148,7.419,4.917,11.872,4.915H193.133z" data-original="#D4E1F4" class="" data-old_color="#D4E1F4"/>
		<path style="fill:#AED0E4" d="M117.592,67.945V126.7c0,9.271,7.516,16.787,16.787,16.787h58.754    C193.133,101.766,159.312,67.945,117.592,67.945z" data-original="#E3E7F2" class="active-path" data-old_color="#E3E7F2"/>
		<path style="fill:#41767F;" d="M495.297,501.607H8.477c-4.636,0-8.393-3.758-8.393-8.393c0-4.636,3.758-8.393,8.393-8.393h486.82    c4.636,0,8.393,3.758,8.393,8.393C503.69,497.849,499.933,501.607,495.297,501.607z" data-original="#41767F"/>
		<g>
			<path style="fill:#A4C2F7;" d="M184.74,140.689c0,0.923,0,1.847-0.084,2.77h-16.787c0.084-0.923,0.084-1.847,0.084-2.77     c0.029-32.012-20.163-60.551-50.361-71.176v-1.595c-1.511,0-3.022,0.084-4.532,0.168c-3.999-1.197-8.102-2.012-12.254-2.434     c2.785-0.338,5.588-0.506,8.393-0.504C150.917,65.151,184.736,98.97,184.74,140.689z" data-original="#A4C2F7" class=""/>
			<path style="fill:#A4C2F7;" d="M117.592,69.512c-1.473-0.589-2.988-1.066-4.532-1.427c1.511-0.084,3.022-0.168,4.532-0.168     V69.512z" data-original="#A4C2F7" class=""/>
			<path style="fill:#A4C2F7;" d="M193.133,143.458c0,55.984-43.142,72.771-83.934,72.771c-2.805,0.002-5.608-0.166-8.393-0.504     c37.174-4.142,65.706-34.888,67.064-72.268H193.133z" data-original="#A4C2F7" class=""/>
		</g>
	</g>
	<g transform="translate(0 3)">
		<path style="fill:#FFFFFF;" d="M109.199,462.249V353.093h-25.18v109.156c0.009,8.224,3.396,16.084,9.368,21.739h25.18    C112.595,478.333,109.208,470.473,109.199,462.249z" data-original="#FFFFFF"/>
		<path style="fill:#FFFFFF;" d="M25.264,238.913v94.064c0,11.11,9.006,20.116,20.116,20.116h25.18    c-11.11,0-20.116-9.006-20.116-20.116v-94.064c0-11.109,9.006-20.115,20.116-20.115H45.38    C34.271,218.798,25.264,227.803,25.264,238.913z" data-original="#FFFFFF"/>
		<path style="fill:#FFFFFF;" d="M42.051,144.809c0.609,21.906,10.707,42.465,27.671,56.337    c16.964,13.872,39.119,19.688,60.71,15.936c-35.435-6.242-61.74-36.322-63.201-72.273c-1.09-38.376,26.792-71.459,64.797-76.885    c-7.378-2.377-15.079-3.594-22.83-3.608c-2.805-0.002-5.608,0.166-8.393,0.504c4.153,0.422,8.256,1.237,12.254,2.434    C72.323,69.671,40.877,104.017,42.051,144.809z" data-original="#FFFFFF"/>
		<path style="fill:#FFFFFF;" d="M285.461,22.348h-25.18c-4.447-0.177-8.2,3.276-8.393,7.722v60.097    c0.194,4.446,3.947,7.898,8.393,7.722h25.18c-4.447,0.176-8.199-3.276-8.393-7.722V30.07    C277.261,25.624,281.014,22.171,285.461,22.348z" data-original="#FFFFFF"/>
		<path style="fill:#FFFFFF;" d="M25.264,492.381c-0.001-2.226,0.884-4.361,2.458-5.936c1.574-1.574,3.709-2.458,5.936-2.458H8.477    c-4.636,0-8.393,3.758-8.393,8.393c0,4.636,3.758,8.393,8.393,8.393h25.18c-2.226,0.001-4.361-0.884-5.936-2.458    C26.148,496.742,25.264,494.607,25.264,492.381z" data-original="#FFFFFF"/>
	</g>
	<g>
		<polygon style="fill:#FFFFFF;" points="75.625,465.039 75.625,355.924 75.625,221.629 92.412,221.629 92.412,355.924     92.412,465.039   " data-original="#FFFFFF"/>
		<g>
			<path style="fill:#AED0E4" d="M495.297,486.82H360.102c-6.203-31.858-47.256-56.139-99.822-58.501V109.115h58.754v33.574     c0.011,9.267,7.52,16.776,16.787,16.787h109.115c9.267-0.011,16.776-7.52,16.787-16.787V74.893     c-0.011-9.267-7.52-16.776-16.787-16.787h-50.361v-25.18c-0.194-9.086-7.701-16.303-16.787-16.139H260.281V8.393     c0-4.636-3.758-8.393-8.393-8.393c-4.636,0-8.393,3.758-8.393,8.393v243.088c-5.08-3.024-10.875-4.636-16.787-4.67h-31.541     c-4.45-0.012-8.715-1.779-11.869-4.918l-23.386-23.386c5.873-3.415,11.311-7.526,16.198-12.245     c21.695-21.1,30.351-52.245,22.655-81.513c-7.696-29.268-30.553-52.127-59.82-59.826S78.53,65.877,57.428,87.57     c-15.876,16.217-24.449,38.21-23.737,60.893c0.953,25.683,13.565,49.53,34.256,64.775H45.379     c-15.738,0.017-28.492,12.77-28.508,28.508v94.061c0.016,15.739,12.769,28.494,28.508,28.513h30.246     c0.036,4.61,3.784,8.328,8.394,8.328c4.61,0,8.357-3.719,8.392-8.329v-1.461h50.361v102.184     c-0.014,12.022-9.756,21.765-21.779,21.779h-6.803c-12.022-0.014-21.765-9.756-21.779-21.779l-0.001-0.001h0.001v-33.574     c0-4.636-3.758-8.393-8.393-8.393c-4.636,0-8.393,3.758-8.393,8.393v33.574h0.001l-0.001,0.001     c-0.002,7.78,2.365,15.377,6.786,21.779H8.477c-4.636,0-8.393,3.758-8.393,8.393c0,4.636,3.758,8.393,8.393,8.393h486.82     c4.636,0,8.393-3.758,8.393-8.393C503.69,490.578,499.933,486.82,495.297,486.82z M159.559,459.063V308.146     c5.557,3.763,12.108,5.787,18.82,5.812h48.328c5.912-0.034,11.707-1.646,16.787-4.669v119.029     C207.735,429.925,177.332,441.67,159.559,459.063z M363.51,109.115l-27.689,23.75v-23.75H363.51z M444.936,74.893v67.795h-94.785     l41.499-35.598c0.095-0.082,0.148-0.193,0.238-0.278c0.672-0.73,1.257-1.535,1.743-2.4c0.144-0.288,0.271-0.585,0.38-0.889     c0.261-0.737,0.416-1.507,0.462-2.287c0.011-0.179,0.103-0.332,0.103-0.514V74.893H444.936z M377.789,32.926v59.402h-50.361     c-0.523,0.053-1.039,0.157-1.541,0.311l-65.606,0.337V33.574L377.789,32.926z M195.166,263.598h31.541     c9.271,0,16.787,7.516,16.787,16.787c0,9.271-7.516,16.787-16.787,16.787h-48.328c-4.45-0.012-8.715-1.779-11.869-4.918     l-9.41-9.41l-52.82-52.82h43.41l23.738,23.738C177.737,260.038,186.267,263.573,195.166,263.598z M184.215,137.697h-49.836     c-4.634-0.005-8.389-3.76-8.393-8.393v-49.84C156.395,83.343,180.337,107.287,184.215,137.697z M50.477,147.995     c-0.975-34.552,24.429-64.203,58.721-68.541v49.849c0.015,13.9,11.28,25.165,25.18,25.18h49.844     c-4.331,34.296-33.986,59.705-68.541,58.725C80.264,211.809,51.873,183.415,50.477,147.995L50.477,147.995z M33.658,335.807     v-94.061c0.006-6.471,5.25-11.715,11.721-11.721h30.246v117.508H45.379C38.907,347.526,33.662,342.28,33.658,335.807z      M92.412,346.07V241.893l50.361,50.361v53.816H92.412z M160.904,486.82c7.574-23.471,46.164-41.967,90.984-41.967     s83.41,18.496,90.984,41.967H160.904z" data-original="#428DFF" class="" data-old_color="#428DFF"/>
			<path style="fill:#AED0E4" d="M80.83,405.617c0.476,0.242,0.986,0.41,1.512,0.5c0.554,0.094,1.114,0.151,1.676,0.168     c2.222-0.031,4.351-0.9,5.959-2.434c2.036-1.962,2.93-4.828,2.37-7.599c-0.56-2.771-2.497-5.065-5.136-6.081     c-1.01-0.431-2.095-0.659-3.193-0.672c-3.394,0.013-6.449,2.061-7.75,5.196s-0.596,6.744,1.791,9.157l1.258,1.008     C79.785,405.178,80.294,405.433,80.83,405.617z" data-original="#428DFF" class="" data-old_color="#428DFF"/>
		</g>
	</g>
</g></g> </svg>
