<svg xmlns="http://www.w3.org/2000/svg" viewBox="0 0 75.33 75.33"><defs><style>.cls-1{isolation:isolate;}.cls-2,.cls-3{fill:#0a52fa;}.cls-3{mix-blend-mode:multiply;}</style></defs><title>NEPTUNE</title><g class="cls-1"><g id="隔离模式"><g id="_编组_" data-name="&lt;编组&gt;"><circle id="_路径_" data-name="&lt;路径&gt;" class="cls-2" cx="37.67" cy="37.67" r="37.67"/><path id="_路径_2" data-name="&lt;路径&gt;" class="cls-3" d="M548.67,632.17a37.63,37.63,0,0,0-4.39,7.5c10.87-.59,22.46-.92,34.49-.92s23.62.32,34.49.92a37.63,37.63,0,0,0-4.39-7.5c-9.58-.45-19.67-.69-30.1-.69S558.25,631.72,548.67,632.17Z" transform="translate(-541.1 -617.14)"/><path id="_路径_3" data-name="&lt;路径&gt;" class="cls-3" d="M555,625.62a37.89,37.89,0,0,0-4.91,4.82c9.41-.35,19.73-.54,30.55-.54,9.4,0,18.41.14,26.77.41a37.87,37.87,0,0,0-4.93-4.8c-6.94-.17-14.27-.27-21.84-.27C571.63,625.25,563,625.38,555,625.62Z" transform="translate(-541.1 -617.14)"/><path id="_路径_4" data-name="&lt;路径&gt;" class="cls-3" d="M578.77,685.84c-7.71,0-15.13-.2-22.11-.55a37.64,37.64,0,0,0,5.25,3.2c5.42.21,11.05.32,16.86.32s11.44-.11,16.86-.32a37.65,37.65,0,0,0,5.25-3.2C593.9,685.65,586.48,685.84,578.77,685.84Z" transform="translate(-541.1 -617.14)"/><path id="_路径_5" data-name="&lt;路径&gt;" class="cls-3" d="M607.12,679.59c-8.72.59-18.3.92-28.35.92s-19.63-.33-28.35-.92q.95,1.08,2,2.09c8.19.51,17.08.79,26.38.79s18.2-.28,26.38-.79Q606.18,680.67,607.12,679.59Z" transform="translate(-541.1 -617.14)"/><ellipse id="_路径_6" data-name="&lt;路径&gt;" class="cls-3" cx="592.73" cy="666.78" rx="9.34" ry="4.33" transform="translate(-552.04 -607.25) rotate(-0.95)"/></g></g></g></svg>