<?xml version="1.0" encoding="iso-8859-1"?>
<!-- Generator: Adobe Illustrator 19.0.0, SVG Export Plug-In . SVG Version: 6.00 Build 0)  -->
<svg version="1.1" id="Capa_1" xmlns="http://www.w3.org/2000/svg" xmlns:xlink="http://www.w3.org/1999/xlink" x="0px" y="0px"
	 viewBox="0 0 512.017 512.017" style="enable-background:new 0 0 512.017 512.017;" xml:space="preserve">
<path style="fill:#CFD8DC;" d="M352.008,170.679c-5.891,0.011-10.675-4.757-10.686-10.648c-0.005-2.84,1.123-5.565,3.134-7.571
	L451.123,45.794c4.093-4.237,10.845-4.354,15.083-0.262c4.237,4.093,4.354,10.845,0.262,15.083
	c-0.086,0.089-0.173,0.176-0.262,0.262L359.539,167.543C357.544,169.545,354.835,170.673,352.008,170.679z"/>
<g>
	<path style="fill:#2196F3;" d="M74.675,512.013c-41.237,0-74.667-33.429-74.667-74.667c0-5.891,4.776-10.667,10.667-10.667
		s10.667,4.776,10.667,10.667c0,29.455,23.878,53.333,53.333,53.333c5.891,0,10.667,4.776,10.667,10.667
		C85.342,507.237,80.566,512.013,74.675,512.013z"/>
	<path style="fill:#2196F3;" d="M74.675,469.346c-17.673,0-32-14.327-32-32c0-5.891,4.776-10.667,10.667-10.667
		s10.667,4.776,10.667,10.667c0,5.891,4.776,10.667,10.667,10.667s10.667,4.776,10.667,10.667
		C85.342,464.57,80.566,469.346,74.675,469.346z"/>
</g>
<g>
	<path style="fill:#546E7A;" d="M274.227,131.127l-128-128c-4.165-4.164-10.917-4.164-15.083,0l-128,128
		c-4.164,4.165-4.164,10.917,0,15.083l128,128c4.165,4.164,10.917,4.164,15.083,0l56.448-56.448l24.448,24.448
		c4.237,4.092,10.99,3.975,15.083-0.262c3.992-4.134,3.992-10.687,0-14.82l-24.448-24.448l56.448-56.448
		c4.177-4.154,4.195-10.908,0.04-15.085C274.24,131.14,274.233,131.134,274.227,131.127z"/>
	<path style="fill:#546E7A;" d="M508.894,365.794l-128-128c-4.165-4.164-10.917-4.164-15.083,0l-56.469,56.469l-24.448-24.448
		c-4.237-4.092-10.99-3.975-15.083,0.262c-3.992,4.134-3.992,10.687,0,14.82l24.448,24.448l-56.448,56.448
		c-4.164,4.165-4.164,10.917,0,15.083l128,128c4.165,4.164,10.917,4.164,15.083,0l128-128
		C513.058,376.711,513.058,369.959,508.894,365.794z"/>
</g>
<g>
	
		<rect x="104.1" y="40.08" transform="matrix(-0.7071 0.7071 -0.7071 -0.7071 289.5638 29.4032)" style="fill:#CFD8DC;" width="69.184" height="69.184"/>
	
		<rect x="40.1" y="104.094" transform="matrix(-0.7071 0.7071 -0.7071 -0.7071 225.5737 183.9369)" style="fill:#CFD8DC;" width="69.184" height="69.184"/>
	
		<rect x="104.093" y="168.094" transform="matrix(-0.7071 0.7071 -0.7071 -0.7071 380.071 247.942)" style="fill:#CFD8DC;" width="69.184" height="69.184"/>
	
		<rect x="168.093" y="104.08" transform="matrix(-0.7071 0.7071 -0.7071 -0.7071 444.061 93.4083)" style="fill:#CFD8DC;" width="69.184" height="69.184"/>
	
		<rect x="338.776" y="274.747" transform="matrix(-0.7071 0.7071 -0.7071 -0.7071 856.1145 264.0636)" style="fill:#CFD8DC;" width="69.184" height="69.184"/>
	
		<rect x="274.776" y="338.761" transform="matrix(-0.7071 0.7071 -0.7071 -0.7071 792.1245 418.5972)" style="fill:#CFD8DC;" width="69.184" height="69.184"/>
	
		<rect x="338.768" y="402.761" transform="matrix(-0.7071 0.7071 -0.7071 -0.7071 946.6217 482.6024)" style="fill:#CFD8DC;" width="69.184" height="69.184"/>
	
		<rect x="402.768" y="338.747" transform="matrix(-0.7071 0.7071 -0.7071 -0.7071 1010.6118 328.0687)" style="fill:#CFD8DC;" width="69.184" height="69.184"/>
</g>
<path style="fill:#B0BEC5;" d="M380.894,173.794l-42.667-42.667c-4.165-4.164-10.917-4.164-15.083,0L134.259,320.013H32.008
	c-5.891-0.011-10.675,4.757-10.686,10.648c-0.005,2.84,1.123,5.565,3.134,7.571L173.79,487.565
	c4.16,4.171,10.914,4.179,15.085,0.019c2.011-2.006,3.139-4.731,3.134-7.571V377.762l188.885-188.885
	C385.058,184.711,385.058,177.959,380.894,173.794z"/>
<path d="M138.675,277.346c-2.831,0.005-5.548-1.115-7.552-3.115l-128-128c-4.164-4.165-4.164-10.917,0-15.083l128-128
	c4.165-4.164,10.917-4.164,15.083,0l128,128c4.164,4.165,4.164,10.917,0,15.083l-128,128
	C144.207,276.225,141.499,277.345,138.675,277.346z M25.758,138.679l112.917,112.917l112.917-112.917L138.675,25.762L25.758,138.679
	z"/>
<path d="M373.342,512.013c-2.831,0.005-5.548-1.115-7.552-3.115l-128-128c-4.164-4.165-4.164-10.917,0-15.083l128-128
	c4.165-4.164,10.917-4.164,15.083,0l128,128c4.164,4.165,4.164,10.917,0,15.083l-128,128
	C378.873,510.892,376.165,512.012,373.342,512.013z M260.424,373.346l112.917,112.917l112.917-112.917L373.342,260.429
	L260.424,373.346z"/>
<path d="M181.342,490.679c-2.831,0.005-5.548-1.115-7.552-3.115L24.456,338.231c-4.171-4.16-4.179-10.914-0.019-15.085
	c2.006-2.011,4.731-3.139,7.571-3.134h102.251l188.885-188.885c4.165-4.164,10.917-4.164,15.083,0l42.667,42.667
	c4.164,4.165,4.164,10.917,0,15.083L192.008,377.762v102.251C192.008,485.904,187.233,490.679,181.342,490.679z M57.758,341.346
	l112.917,112.917v-80.917c-0.005-2.831,1.115-5.548,3.115-7.552l184.469-184.448l-27.584-27.584L146.227,338.231
	c-2.004,1.999-4.721,3.12-7.552,3.115H57.758z"/>
<path d="M352.008,170.679c-5.891,0.011-10.675-4.757-10.686-10.648c-0.005-2.84,1.123-5.565,3.134-7.571L451.123,45.794
	c4.093-4.237,10.845-4.354,15.083-0.262c4.237,4.093,4.354,10.845,0.262,15.083c-0.086,0.089-0.173,0.176-0.262,0.262
	L359.539,167.543C357.544,169.545,354.835,170.673,352.008,170.679z"/>
<path d="M74.675,512.013c-41.237,0-74.667-33.429-74.667-74.667c0-5.891,4.776-10.667,10.667-10.667s10.667,4.776,10.667,10.667
	c0,29.455,23.878,53.333,53.333,53.333c5.891,0,10.667,4.776,10.667,10.667C85.342,507.237,80.566,512.013,74.675,512.013z"/>
<path d="M74.675,469.346c-17.673,0-32-14.327-32-32c0-5.891,4.776-10.667,10.667-10.667s10.667,4.776,10.667,10.667
	c0,5.891,4.776,10.667,10.667,10.667s10.667,4.776,10.667,10.667C85.342,464.57,80.566,469.346,74.675,469.346z"/>
<path d="M234.675,245.346c-2.831,0.005-5.548-1.115-7.552-3.115l-160-160c-4.093-4.237-3.975-10.99,0.262-15.083
	c4.134-3.992,10.687-3.992,14.821,0l160,160c4.159,4.172,4.149,10.926-0.024,15.085C240.189,244.221,237.49,245.34,234.675,245.346z
	"/>
<path d="M437.342,448.013c-2.831,0.005-5.548-1.115-7.552-3.115l-160-160c-4.092-4.237-3.975-10.99,0.262-15.083
	c4.134-3.992,10.687-3.992,14.82,0l160,160c4.159,4.172,4.149,10.926-0.023,15.085C442.855,446.888,440.157,448.006,437.342,448.013
	z"/>
<path d="M74.675,213.346c-5.891,0.011-10.675-4.757-10.686-10.648c-0.005-2.84,1.123-5.565,3.134-7.571l128-128
	c4.237-4.093,10.99-3.975,15.083,0.262c3.992,4.134,3.992,10.687,0,14.82l-128,128C80.21,212.212,77.502,213.34,74.675,213.346z"/>
<path d="M309.342,448.013c-5.891,0.011-10.675-4.757-10.686-10.648c-0.005-2.84,1.123-5.565,3.134-7.571l122.752-122.581
	c4.237-4.093,10.99-3.975,15.083,0.262c3.993,4.134,3.993,10.687,0,14.821L316.958,444.962
	C314.927,446.953,312.186,448.052,309.342,448.013z"/>
<g>
</g>
<g>
</g>
<g>
</g>
<g>
</g>
<g>
</g>
<g>
</g>
<g>
</g>
<g>
</g>
<g>
</g>
<g>
</g>
<g>
</g>
<g>
</g>
<g>
</g>
<g>
</g>
<g>
</g>
</svg>
