<svg xmlns="http://www.w3.org/2000/svg" viewBox="0 0 214.72 96.29"><defs><style>.cls-1{isolation:isolate;}.cls-2,.cls-3{fill:#c29bd3;}.cls-3{mix-blend-mode:multiply;}.cls-4{fill:#ae79c5;}</style></defs><title>SATURN</title><g class="cls-1"><g id="隔离模式"><g id="_编组_" data-name="&lt;编组&gt;"><g id="_编组_2" data-name="&lt;编组&gt;"><circle id="_路径_" data-name="&lt;路径&gt;" class="cls-2" cx="262.49" cy="690.1" r="48.13" transform="translate(-351.45 -530.32) rotate(-17.59)"/><path id="_路径_2" data-name="&lt;路径&gt;" class="cls-3" d="M308.37,675.55a48.36,48.36,0,0,0-3.37-8,59.81,59.81,0,0,1-65,65.09,48.13,48.13,0,0,0,68.39-57.08Z" transform="translate(-155.13 -641.95)"/><path id="_路径_3" data-name="&lt;路径&gt;" class="cls-3" d="M220.15,713q1.1,2,2.37,3.93a226.37,226.37,0,0,0,46.05-9.85,228.91,228.91,0,0,0,42.05-17.78q0-2.28-.3-4.58a226.74,226.74,0,0,1-43,18.33C250.1,708.48,233.72,711.81,220.15,713Z" transform="translate(-155.13 -641.95)"/><path id="_路径_4" data-name="&lt;路径&gt;" class="cls-3" d="M216.9,674.68c-.33,1-.63,2-.89,3a246.81,246.81,0,0,1,38.32-15.51,250.36,250.36,0,0,1,38.75-9.2c-.79-.65-1.58-1.27-2.41-1.87a287.53,287.53,0,0,0-36.92,9.27A283.41,283.41,0,0,0,216.9,674.68Z" transform="translate(-155.13 -641.95)"/><path id="_路径_5" data-name="&lt;路径&gt;" class="cls-3" d="M308.44,675.78l-.07-.23c-.18-.55-.37-1.1-.57-1.64-11.49,4.86-27.9,10.67-46.27,16.49-17.41,5.52-33.36,10-45.36,12.75.14.5.28,1,.43,1.5,0,.15.1.3.15.45a449.43,449.43,0,0,0,45.58-12.15A436,436,0,0,0,308.44,675.78Z" transform="translate(-155.13 -641.95)"/><path id="_路径_6" data-name="&lt;路径&gt;" class="cls-3" d="M228.07,723.74a48.1,48.1,0,0,0,5.81,5.06c11-.36,24.46-2.76,38.59-7.24s26.53-10.29,35.71-16.32a48.12,48.12,0,0,0,1.83-7.48c-9.39,6.87-23.16,13.65-39.15,18.72S239.7,723.94,228.07,723.74Z" transform="translate(-155.13 -641.95)"/><path id="_路径_7" data-name="&lt;路径&gt;" class="cls-3" d="M214.35,690c0,.65,0,1.3,0,1.95,12.47-4.17,28-9.14,44.8-14.47,16.25-5.15,31.31-9.89,43.67-13.6-.36-.55-.72-1.1-1.1-1.64-12.34,3.47-27.25,7.94-43.27,13C241.9,680.54,226.66,685.65,214.35,690Z" transform="translate(-155.13 -641.95)"/></g><g id="_编组_3" data-name="&lt;编组&gt;"><path id="_路径_8" data-name="&lt;路径&gt;" class="cls-4" d="M369.68,654.74c-2.52-7.63-31.36-5.38-70.4,4.35.83,1,1.6,2,2.35,3.06,6.09-1.42,11.72-2.57,16.66-3.35,12.31-2,27.42-3,29.45,3.18,3.44,10.45-37.63,30.06-80,44-22.47,7.41-44.1,12.87-60.92,15.36a114.2,114.2,0,0,1-16.28,1.44c-7.83,0-12.29-1.54-13.3-4.6-1.59-4.83,5.73-11.59,21.77-20.07,4.36-2.31,9.57-4.75,15.36-7.25,0-.27,0-.53,0-.79,0-1,.09-2,.15-3-37.19,15.41-61.72,30.77-59.2,38.4,3.37,10.23,54.1,2.7,113.29-16.83S373.05,665,369.68,654.74Z" transform="translate(-155.13 -641.95)"/><path id="_路径_9" data-name="&lt;路径&gt;" class="cls-4" d="M179.83,717.43c1,4.22,7.77,5.37,26,2.67,16.65-2.47,38.37-8.27,60.67-15.67,62.33-20.67,80.8-36.55,79-42-.57-1.74-5.3-5.73-24.67-2.67l-2.67.33c-4.69.74-10,1.83-15.75,3.17q1.37,2.05,2.54,4.24C317,665.72,325,666.12,326,669.15c2,6.06-24.82,20.36-59.9,31.93S201,717.11,199,711c-1-3,5.17-8.09,15.95-13.85q-.35-2.32-.49-4.71c-5.49,2.4-10.44,4.74-14.61,6.94C182.51,708.58,178.83,713.1,179.83,717.43Z" transform="translate(-155.13 -641.95)"/></g></g></g></g></svg>