<svg xmlns="http://www.w3.org/2000/svg" viewBox="0 0 74.33 74.33"><defs><style>.cls-1{isolation:isolate;}.cls-2,.cls-6{fill:#73b0ff;}.cls-3,.cls-5{opacity:0.5;mix-blend-mode:hard-light;}.cls-4,.cls-5{fill:#fff;}.cls-6{opacity:0.7;mix-blend-mode:multiply;}</style></defs><title>URANUS</title><g class="cls-1"><g id="隔离模式"><g id="_编组_" data-name="&lt;编组&gt;"><circle id="_路径_" data-name="&lt;路径&gt;" class="cls-2" cx="37.17" cy="37.17" r="37.17"/><g id="_编组_2" data-name="&lt;编组&gt;" class="cls-3"><path id="_路径_2" data-name="&lt;路径&gt;" class="cls-4" d="M30.77,551.47a36.88,36.88,0,0,0-1.9,6.84c11.58-.33,23.86-.52,36.58-.52s25,.18,36.58.52a36.88,36.88,0,0,0-1.9-6.84c-11-.3-22.65-.46-34.68-.46S41.79,551.17,30.77,551.47Z" transform="translate(-28.28 -527.67)"/><path id="_路径_3" data-name="&lt;路径&gt;" class="cls-4" d="M39.66,538.09a37.37,37.37,0,0,0-2.83,3c8.4-.47,18.18-.73,28.62-.73s20.21.27,28.62.73a37.37,37.37,0,0,0-2.82-3c-7.74-.37-16.5-.59-25.79-.59S47.4,537.72,39.66,538.09Z" transform="translate(-28.28 -527.67)"/><path id="_路径_4" data-name="&lt;路径&gt;" class="cls-4" d="M37.11,588.87q.64.76,1.32,1.48c7.68.18,16.34.29,25.52.29,10.43,0,20.19-.13,28.6-.37q.68-.72,1.32-1.48c-8.69.26-18.93.4-29.92.4C54.24,589.19,45.1,589.07,37.11,588.87Z" transform="translate(-28.28 -527.67)"/><ellipse id="_路径_5" data-name="&lt;路径&gt;" class="cls-4" cx="18.83" cy="48.33" rx="7.5" ry="4.5"/></g><ellipse id="_路径_6" data-name="&lt;路径&gt;" class="cls-5" cx="56.33" cy="16.83" rx="4" ry="2.5"/><path id="_路径_7" data-name="&lt;路径&gt;" class="cls-6" d="M98.23,547.32A40.13,40.13,0,0,1,58.45,593a40,40,0,0,1-24.37-8.24,37.17,37.17,0,0,0,64.15-37.45Z" transform="translate(-28.28 -527.67)"/></g></g></g></svg>