<svg xmlns="http://www.w3.org/2000/svg" viewBox="0 0 55.33 55.33"><defs><style>.cls-1{isolation:isolate;}.cls-2{fill:#c7725c;}.cls-3{fill:#ff6137;}.cls-3,.cls-4{opacity:0.5;}.cls-10,.cls-11,.cls-3,.cls-4,.cls-5,.cls-6,.cls-7,.cls-8,.cls-9{mix-blend-mode:multiply;}.cls-10,.cls-11,.cls-4,.cls-5,.cls-6,.cls-7,.cls-8,.cls-9{fill:#ae79c5;}.cls-6{opacity:0.25;}.cls-7{opacity:0.35;}.cls-8{opacity:0.7;}.cls-9{opacity:0.15;}.cls-10{opacity:0.2;}.cls-11{opacity:0.4;}</style></defs><title>VENUS</title><g class="cls-1"><g id="隔离模式"><g id="_编组_" data-name="&lt;编组&gt;"><g id="_编组_2" data-name="&lt;编组&gt;"><circle id="_路径_" data-name="&lt;路径&gt;" class="cls-2" cx="27.67" cy="27.67" r="27.67"/><path id="_路径_2" data-name="&lt;路径&gt;" class="cls-3" d="M328.67,328.93a27.66,27.66,0,0,0-1.21-8.1,27.67,27.67,0,0,0-50.59,21.62,27.67,27.67,0,0,0,51.8-13.53Z" transform="translate(-275.66 -306.69)"/><path id="_路径_3" data-name="&lt;路径&gt;" class="cls-4" d="M325,351.56A95,95,0,0,1,302.87,354a96.2,96.2,0,0,1-21-2.21,27.82,27.82,0,0,0,1.89,2.1,59.31,59.31,0,0,0,19.11,3,58.17,58.17,0,0,0,20.49-3.49Q324.21,352.53,325,351.56Z" transform="translate(-275.66 -306.69)"/><path id="_路径_4" data-name="&lt;路径&gt;" class="cls-5" d="M317.09,358.35c-4.45.31-9.24.49-14.22.49-4.6,0-9-.15-13.19-.42a27.52,27.52,0,0,0,2.93,1.45c3.24.26,6.68.4,10.26.4,4,0,7.82-.18,11.38-.5A27.5,27.5,0,0,0,317.09,358.35Z" transform="translate(-275.66 -306.69)"/><path id="_路径_5" data-name="&lt;路径&gt;" class="cls-6" d="M278.76,347.09q.52,1,1.11,1.94a89,89,0,0,0,23,2.85A87.76,87.76,0,0,0,327,348.71c.35-.58.68-1.19,1-1.8a152.76,152.76,0,0,1-49.21.17Z" transform="translate(-275.66 -306.69)"/><path id="_路径_6" data-name="&lt;路径&gt;" class="cls-6" d="M276.9,342.56q.21.68.46,1.35a239,239,0,0,0,25.52,1.3,237,237,0,0,0,26.46-1.4q.24-.65.44-1.31c-8.27.57-17.35.89-26.9.89C293.68,343.39,284.91,343.1,276.9,342.56Z" transform="translate(-275.66 -306.69)"/><path id="_路径_7" data-name="&lt;路径&gt;" class="cls-7" d="M275.88,337.8c0,.17,0,.34.07.51,7.95.38,17.13.59,26.93.59,10.17,0,19.68-.23,27.84-.64,0-.16,0-.33.06-.49-8.53.25-18,.39-27.9.39C293.29,338.17,284.17,338,275.88,337.8Z" transform="translate(-275.66 -306.69)"/><path id="_路径_8" data-name="&lt;路径&gt;" class="cls-8" d="M320.06,312.33c-5.34-.48-11.13-.74-17.18-.74-5.67,0-11.1.23-16.16.65q-1.09.82-2.1,1.75c5.77-.34,11.9-.52,18.26-.52,6.72,0,13.18.21,19.23.58Q321.12,313.14,320.06,312.33Z" transform="translate(-275.66 -306.69)"/><path id="_路径_9" data-name="&lt;路径&gt;" class="cls-9" d="M281.9,316.86c-.44.53-.85,1.09-1.25,1.66a199.92,199.92,0,0,1,45.44.12q-.56-.81-1.17-1.57a115.86,115.86,0,0,0-22-2A117.45,117.45,0,0,0,281.9,316.86Z" transform="translate(-275.66 -306.69)"/><path id="_路径_10" data-name="&lt;路径&gt;" class="cls-10" d="M278.49,322.16c-.32.64-.6,1.3-.87,2,7.82-.69,16.33-1.07,25.25-1.07,9.27,0,18.11.41,26.19,1.16-.25-.64-.53-1.28-.83-1.9a183.56,183.56,0,0,0-49.74-.15Z" transform="translate(-275.66 -306.69)"/><path id="_路径_11" data-name="&lt;路径&gt;" class="cls-11" d="M276.22,328.78c-.06.3-.11.61-.16.91,8.24-.4,17.3-.63,26.82-.63,9.87,0,19.24.24,27.73.67,0-.29-.1-.59-.16-.88-8.09-.69-17.51-1.09-27.57-1.09C293.19,327.77,284.11,328.14,276.22,328.78Z" transform="translate(-275.66 -306.69)"/></g></g></g></g></svg>