<?xml version="1.0"?>
<svg xmlns="http://www.w3.org/2000/svg" viewBox="-31 0 511 512" width="512px" height="512px"><g><path d="m224.8125 398.636719c-9.707031 0-19.414062-3.144531-27.515625-9.425781-3.273437-2.539063-3.867187-7.25-1.328125-10.523438s7.25-3.867188 10.523438-1.328125c10.785156 8.367187 25.851562 8.367187 36.640624 0 3.269532-2.539063 7.984376-1.945313 10.519532 1.328125 2.539062 3.273438 1.945312 7.984375-1.328125 10.523438-8.097657 6.28125-17.804688 9.425781-27.511719 9.425781zm0 0" data-original="#000000" class="active-path" data-old_color="#1d3645" fill="#1d3645"/><path d="m224.8125 512c-45.574219 0-101.214844-36.671875-148.835938-98.097656-47.261718-60.957032-75.476562-131.832032-75.476562-189.589844 0-59.917969 23.332031-116.246094 65.699219-158.613281 42.367187-42.367188 98.695312-65.699219 158.613281-65.699219 56.804688 0 111.003906 21.277344 152.601562 59.910156 3.035157 2.816406 3.210938 7.5625.394532 10.597656-2.820313 3.035157-7.566406 3.210938-10.601563.390626-38.816406-36.046876-89.386719-55.898438-142.394531-55.898438-115.414062 0-209.3125 93.894531-209.3125 209.3125 0 54.542969 27.039062 121.980469 72.332031 180.402344 44.132813 56.921875 96.621094 92.285156 136.980469 92.285156s92.847656-35.363281 136.976562-92.285156c45.292969-58.421875 72.332032-125.859375 72.332032-180.402344 0-48.332031-16.859375-95.476562-47.476563-132.753906-2.628906-3.203125-2.164062-7.925782 1.039063-10.554688 3.199218-2.628906 7.925781-2.167968 10.554687 1.035156 32.8125 39.953126 50.886719 90.480469 50.886719 142.273438 0 57.757812-28.21875 128.632812-75.476562 189.59375-47.625 61.421875-103.261719 98.09375-148.835938 98.09375zm0 0" data-original="#000000" class="active-path" data-old_color="#1d3645" fill="#1d3645"/><path d="m255.878906 351.144531c-11.320312-11.320312-14.902344-28.640625-10.082031-48.761719 4.507813-18.820312 15.964844-38.160156 32.261719-54.457031s35.636718-27.753906 54.457031-32.261719c20.121094-4.816406 37.4375-1.238281 48.761719 10.082032 11.320312 11.320312 14.898437 28.636718 10.078125 48.761718-4.507813 18.820313-15.359375 38.789063-32.261719 54.457032-55.671875 51.597656-95.179688 30.214844-103.214844 22.179687zm32.785156-92.613281c-28.375 28.101562-38.394531 65.792969-22.179687 82.003906 7.492187 7.492188 19.796875 9.660156 34.660156 6.101563 16.164063-3.871094 32.976563-13.914063 47.34375-28.28125 14.363281-14.363281 24.40625-31.175781 28.28125-47.339844 3.558594-14.859375 1.390625-27.171875-6.101562-34.664063-5.136719-5.136718-41.09375-18.328124-82.003907 22.179688zm0 0" data-original="#000000" class="active-path" data-old_color="#1d3645" fill="#1d3645"/><path d="m144.984375 361.222656c-19.003906-3.652344-38.160156-15.964844-54.457031-32.257812-9.949219-9.953125-18.015625-20.890625-23.980469-32.511719-1.890625-3.6875-.4375-8.207031 3.25-10.097656 3.683594-1.890625 8.203125-.4375 10.097656 3.25 5.175781 10.085937 12.519531 20.027343 21.242188 28.75 14.367187 14.367187 31.179687 24.410156 47.34375 28.28125 14.859375 3.558593 27.167969 1.390625 34.660156-6.101563 16.214844-16.214844 6.054687-53.765625-22.179687-82.003906-14.367188-14.363281-31.179688-24.410156-47.34375-28.277344-14.859376-3.5625-27.167969-1.394531-34.660157 6.097656-7.796875 7.792969-8.34375 19.089844-7.429687 27.191407.464844 4.117187-2.496094 7.828125-6.613282 8.292969-4.105468.46875-7.824218-2.496094-8.292968-6.609376-1.8125-16.085937 2.355468-30.105468 11.726562-39.480468 11.320313-11.320313 28.640625-14.898438 48.761719-10.082032 18.820313 4.507813 38.160156 15.964844 54.457031 32.261719s27.753906 35.636719 32.261719 54.457031c4.820313 20.121094 1.238281 37.441407-10.082031 48.761719-8.035156 8.035157-27.484375 14.167969-48.761719 10.078125zm0 0" data-original="#000000" class="active-path" data-old_color="#1d3645" fill="#1d3645"/></g> </svg>
