<svg id="隔离模式" xmlns="http://www.w3.org/2000/svg" viewBox="0 0 42.24 42.24"><defs><style>.cls-1{fill:#0070ff;}.cls-2{fill:#ae79c5;}.cls-3{fill:#fff;}</style></defs><title>EARTH</title><g id="_编组_" data-name="&lt;编组&gt;"><g id="_编组_2" data-name="&lt;编组&gt;"><circle id="_路径_" data-name="&lt;路径&gt;" class="cls-1" cx="21.12" cy="21.12" r="21.12"/><path id="_路径_2" data-name="&lt;路径&gt;" class="cls-2" d="M575.17,245.57a11.14,11.14,0,0,0-1-.81,25.18,25.18,0,0,1-2-2.63,7.7,7.7,0,0,1-1.79-5c.1-1.59,1.19-2.16,1.56-3.53.58-2.13-1.6-4.11-3.25-5-1.31-.67-3.65-.47-4.29-2.34a2.25,2.25,0,0,1,1.7-2.94c.73,0,.88.46,1.55.53,1.28.13,1.24-.79,1.94-1.54.89-1,1.88-1.09,2.41-2.42.2-.51.12-1.13.43-1.62.43-.67,1-.57,1.48-1,.83-.76,1.16-3.64.36-4.18a17,17,0,0,0-3-1c-1-.14-2,.53-3,.79a24.87,24.87,0,0,0-3.72,1,15,15,0,0,1-1.59.62,21,21,0,0,0-1.89,4.12,13.67,13.67,0,0,0,.21,2.55c.31,1.84,1.8,3.22,1.82,5.05,0,2.38-1,4.38-1.17,6.72a6.11,6.11,0,0,0,.08,1.41A21.17,21.17,0,0,0,575.17,245.57Z" transform="translate(-560.02 -204.19)"/><path id="_路径_3" data-name="&lt;路径&gt;" class="cls-3" d="M581.14,204.19A21,21,0,0,0,570.67,207c.31,1.07,2.47.39,3.27.18,1.77-.45,2.27,0,4,.53s2.17-.09,3.57-.57c1.13-.39,2.29-.4,3.42-.82s1.81-.64,2.08-1.28A21.11,21.11,0,0,0,581.14,204.19Z" transform="translate(-560.02 -204.19)"/><path id="_路径_4" data-name="&lt;路径&gt;" class="cls-2" d="M599.26,222.7c.37-.18.57-.82,1-.87.71-.08,1.24.73,1.83,1.08a21,21,0,0,0-5.65-12.12c-1.23.63-3.23-.07-4,1.36-.48.84.46,3.76-1.68,2.91.25-2.41-1.6-.9-2.19.15-.48.85-.57,2.09-1.1,2.82-.72,1-2,.5-3,1.07-1.13.68-.59,1.38-1.19,2.46-.48.86-1.64,1-.68,2l.24.29c1,1.41,1.65-1.31,1.91-1.58.79-.84,3-.62,3,.84,1.07.14.82-1,.4-1.33,1-.09,1.63.16,1.3,1.18s-1.5.89-2.31,1.12c-2,.57-3.06,1.11-3.49,3.3-.21,1.07-.44,2-.73,3a6.85,6.85,0,0,0,1.42,5.69c.56.74,1.17.77,1.83,1.3a14.81,14.81,0,0,1,1.68,2.2,22.29,22.29,0,0,0,1.81,1.42,17.4,17.4,0,0,1,2,2.61,21.15,21.15,0,0,0,2.41-1.63c.27-.34.6-.55.87-.87a9.25,9.25,0,0,0,2.08-4.3c.06-1.59-1.57-4.28-2.32-5.63-.36-.65-1.31-1.25-1.51-1.79-.33-.89.5-1.57-.69-2.15,2-.61,2.39.76,4.16,1.05a12.2,12.2,0,0,1,2.21.25c.76.25,1.3.7,2.15.11a3.3,3.3,0,0,0,1-2.45c-.17-1.3-1.64-1.06-1.81-2.05a12.39,12.39,0,0,1-2.55-.56C597.59,222.61,598.71,223,599.26,222.7Z" transform="translate(-560.02 -204.19)"/><path id="_路径_5" data-name="&lt;路径&gt;" class="cls-3" d="M563.85,213.79c.18-.44.84-.88,1.17-1.32a11,11,0,0,1,1.19-1c.43-.44.67-1,1.35-1s.84.68,1.58.28c.32-.17.4-.52.65-.71s.37-.07.55-.12a5.37,5.37,0,0,0,.92-.48c.74-.36,1.54-.53,2.28-.94a5,5,0,0,1,1.68-.59c0,.8,2.06,1.69,2.48,1.11.1-.14.06-.43.11-.6s.2-.13.22-.24c.1-.41.19-1,.42-.87s.6.1.86.26c.64.37.87,1,1.63,1.19.41.1,1.31-.11,1.62.2a.91.91,0,0,1,.09.88c-.23.73-1,.43-1.46.95-.62.71-.26,2.06-.42,3-.11.61-1.1,2.08-1.81,2.14-.51,0-.72-.43-1.32-.28s-.69.86-.38,1.45.26.26.15.68-.25.4-.68.35c-.63-.39-.66-.5-.82-1.5a4.45,4.45,0,0,1-.07-2.35,1.59,1.59,0,0,0-1.19-1.76c-.35-.09-.67.1-1,.09s-.62-.22-.87-.07-.1.38-.18.59,0,.16,0,.3-.47.29-.6.37c-.44.26-1.21.69-1,1.35.14.37.6.46.85.73.63.69.08,1.73.43,2.53.16.36.14.76.29,1.1s.44.43.63.68c-.46.91-2.25.26-2.86-.2a8.24,8.24,0,0,1-1.24-1.14c-.34-.39-.49-1-.82-1.31A1.71,1.71,0,0,0,567,217c-.53,0-.63.42-1,.69s-.51.24-.83-.08-.1-.53-.24-.78c-.28-.49-1.24-.06-1.49-.75-.15-.42.15-.94.27-1.33a2,2,0,0,0,.1-.64c0-.16-.09-.36,0-.24" transform="translate(-560.02 -204.19)"/><path id="_路径_6" data-name="&lt;路径&gt;" class="cls-3" d="M582.55,220.55c.34.48,1,.17,1.5.41s.32.32.79.32a3.37,3.37,0,0,0,2.54-.83,2.7,2.7,0,0,1,1.85-1c.93-.08,1.86-.11,2.79-.24a2.59,2.59,0,0,1,1.26,0c.4.21.18.53.4.84s.82.33,1.07.81c-.15.44-.75.27-1,1-.11.29-.14.69.21.76a7.11,7.11,0,0,0,2.1-1.08c.9-.83.26-1.91,1-2.83.39-.47,1-.71,1.24-1.26a3.12,3.12,0,0,0,.2-1.61c-.72-.2-.41-1.75-1.39-2a1.84,1.84,0,0,0-1,0c-.34.21-.27.83-.61,1-.62.36-.93-.21-1.27-.52a5.64,5.64,0,0,0-1.13-.6c-.6-.32-1.07-.74-1.74-.68-.69.53-.52.58-1.07,1.21a1.93,1.93,0,0,1-1.5.82c-.64,0-1.29-.47-1.92-.44s-1.46,1-1.92,1.46c.05.06.06.19.11.25-.48.46-1.26.37-1.79.72a4.82,4.82,0,0,0-.94.67c-.1.53-.44.72-.34,1s.29.24.49.53c.07.1.25.17.29.29.08.27.24.23.14.5s-.24.34-.24.42" transform="translate(-560.02 -204.19)"/><path id="_路径_7" data-name="&lt;路径&gt;" class="cls-3" d="M567.54,229.15c.88-.08.81-1.14,1.14-1.65.2-.31.68-.55.94-.84s.36-.5.59-.72c.69-.64,1.21.07,1.87.51.34.23.55.76.87.92s1-.19,1.42-.24c1-.15,1,.19,1.28,1.12.28,1.11-.28,2.63,1,3.29.12.07.39,0,.44.18s-.47.44-.65.48c-.71.17-1.49.06-2.21.26s-1.28.55-1.92.09c-.44-.32-.64-.83-1.2-1s-1.16.06-1.69-.14-.83-.68-1.24-1-.84-.55-.64-1.1a.48.48,0,0,0,.13-.1" transform="translate(-560.02 -204.19)"/><path id="_路径_8" data-name="&lt;路径&gt;" class="cls-3" d="M576.52,239.26c-.39-.38-.32-.76-.88-.8-.12,0-.32.06-.46.07s-.14-.15-.26-.14a5.6,5.6,0,0,0-.92.34,4.55,4.55,0,0,1-1.29.25,4.72,4.72,0,0,1-1.49-.49c-.38-.13-.77-.15-1.15-.26a4.51,4.51,0,0,1-1.62-1c-.44-.47-.3-1.21-1.11-1.09a1.88,1.88,0,0,0-1.09.59c-.3.31-.69.78-1.19.71a4,4,0,0,1-1.47-.72l-.51-.42a21.23,21.23,0,0,0,6.48,6.7,2.9,2.9,0,0,0,1.21-.42c.64-.47.89-.64,1.63-.16.94.6,2.12,1.1,3.09.29a4.65,4.65,0,0,0,.63-.52c.15-.21.09-.58.27-.78s.74-.2,1.09-.33.51-.26.8-.35C578,240.12,577,239.7,576.52,239.26Z" transform="translate(-560.02 -204.19)"/><g id="_编组_3" data-name="&lt;编组&gt;"><path id="_路径_9" data-name="&lt;路径&gt;" class="cls-3" d="M595.48,225.6a.18.18,0,0,0,.08.13l0,0Z" transform="translate(-560.02 -204.19)"/><path id="_路径_10" data-name="&lt;路径&gt;" class="cls-3" d="M599.18,225.51c-.64-.48-1.23-1-2-.69a6.91,6.91,0,0,0-.76.53c-.09.05-.21,0-.32.05a1.85,1.85,0,0,0-.46.36l-.05,0a5.83,5.83,0,0,1-.7,1.17c-.27.34-.72.52-1,.83s-.19.46-.49.69a1.83,1.83,0,0,1-1.43.32,1.29,1.29,0,0,0-1.31.74c-.34.78.7.87.85,1.55,1.11.09.12,1.3,0,1.82-.4,1.21.59,1,1.33,1.56a3.51,3.51,0,0,0,.88.61c.39.13.76-.06,1.16-.05a1.37,1.37,0,0,1,.73.15c.16.09.35.46.49.5.46.14,1.3-1,1.6-1.31s.64-.51.7-.84-.11-.2-.13-.4a2.52,2.52,0,0,1,.37-1.7c.17-.35.21-1.08.65-1s.93.76,1.5.62c.16,0,.17-.21.3-.26s.33-.07.49-.12l.08,0a21.09,21.09,0,0,0,.62-3.92A5.66,5.66,0,0,1,599.18,225.51Z" transform="translate(-560.02 -204.19)"/></g></g></g></svg>