<?xml version="1.0"?>
<svg xmlns="http://www.w3.org/2000/svg" height="512px" viewBox="-84 0 512 512.001" width="512px" class=""><g><path d="m105.558594 324.636719c-19.011719 8.882812-33.558594 13.023437-43.601563 27.195312-7.285156 10.285157-11.96875 26.179688-13.921875 47.242188-.40625 4.402343 3.0625 8.191406 7.46875 8.191406h232.753906c4.402344 0 7.875-3.789063 7.46875-8.191406-1.980468-21.363281-6.535156-36.816407-13.921874-47.242188-10.050782-14.183593-24.625-18.324219-43.585938-27.1875-1.355469-.636719-2.855469-.972656-4.351562-.972656h-123.976563c-1.488281 0-2.992187.335937-4.332031.964844zm127.25 14.035156c18.058594 8.355469 29.574218 11.695313 36.757812 21.832031 4.851563 6.847656 8.300782 17.511719 10.28125 31.761719h-215.933594c1.980469-14.246094 5.429688-24.910156 10.28125-31.761719 7.160157-10.101562 18.527344-13.398437 36.757813-21.832031zm0 0" data-original="#000000" class="active-path" data-old_color="#ffd15c" fill="#ffd15c"/><path d="m95.804688 182.988281c9.996093 4.378907 21.324218 9.34375 32.046874 17.261719 14.039063 10.363281 25.179688 21.824219 33.132813 34.09375.011719.011719.019531.027344.027344.039062 2.378906 3.714844 6.429687 5.9375 10.84375 5.945313h.023437c4.402344 0 8.457032-2.207031 10.882813-5.960937l.015625-.023438c7.933594-12.246094 19.082031-23.71875 33.136718-34.097656 10.71875-7.914063 22.042969-12.875 32.050782-17.261719l.039062-.015625c.03125-.015625.0625-.027344.09375-.042969 10.132813-4.445312 6.941406-19.625-4.117187-19.625h-144.199219c-11.582031 0-13.84375 16.089844-4.078125 19.640625m76.179687 40.703125c-12.398437-18.101562-31.703124-35.089843-50.871093-45.34375h101.738281c-19.078125 10.207031-38.371094 27.109375-50.867188 45.34375zm0 0" data-original="#000000" class="active-path" data-old_color="#ffd15c" fill="#ffd15c"/><path d="m22.007812 417.289062h-2.496093c-10.757813 0-19.511719 8.75-19.511719 19.507813v28.523437c0 10.757813 8.753906 19.511719 19.511719 19.511719h2.417969v7.65625c0 10.761719 8.75 19.511719 19.507812 19.511719h260.886719c10.757812 0 19.511719-8.75 19.511719-19.511719v-7.65625h2.414062c10.761719 0 19.511719-8.753906 19.511719-19.511719v-28.523437c0-10.757813-8.75-19.507813-19.511719-19.507813h-2.496094c-2.667968-127.597656-70.246094-89.851562-114.519531-148.316406-2.5-3.300781-7.203125-3.953125-10.507813-1.449218-3.300781 2.5-3.949218 7.203124-1.449218 10.507812 49.535156 65.414062 109.023437 20.996094 111.480468 139.257812h-269.753906c2.074219-99.707031 46.125-84.96875 84.894532-113.597656 13.085937-9.660156 23.40625-20.25 30.675781-31.480468 6.375-9.847657 6.375-22.574219 0-32.421876-7.269531-11.230468-17.589844-21.820312-30.675781-31.484374-38.769532-28.625-82.820313-13.886719-84.894532-113.59375h269.753906c-2.457031 118.230468-61.980468 73.886718-111.480468 139.257812-2.503906 3.304688-1.851563 8.007812 1.449218 10.507812 3.304688 2.503907 8.007813 1.851563 10.507813-1.449218 17.617187-23.265625 39.53125-32.203125 50.769531-37.125 30.492188-13.359375 61.992188-27.167969 63.75-111.191406h2.496094c10.761719 0 19.511719-8.753907 19.511719-19.511719v-28.519531c0-10.757813-8.75-19.511719-19.511719-19.511719h-2.414062v-7.65625c0-10.757813-8.753907-19.511719-19.511719-19.511719h-112.941407c-4.144531 0-7.5 3.355469-7.5 7.5s3.355469 7.5 7.5 7.5h112.941407c2.445312 0 4.511719 2.066406 4.511719 4.511719v7.65625h-269.90625v-7.65625c0-2.445313 2.0625-4.511719 4.507812-4.511719h112.941406c4.144532 0 7.503906-3.355469 7.503906-7.5s-3.359374-7.5-7.503906-7.5h-112.941406c-10.757812 0-19.507812 8.753906-19.507812 19.511719v7.65625h-2.417969c-10.757813 0-19.511719 8.753906-19.511719 19.511719v28.523437c0 10.757813 8.753906 19.507813 19.511719 19.507813h2.496093c2.753907 131.785156 75.835938 88.15625 117.972657 153.230468 3.171875 4.898438 3.171875 11.222656.003906 16.117188-42.21875 65.1875-115.21875 21.3125-117.976563 153.230468zm284.828126 75.199219c0 2.445313-2.066407 4.511719-4.511719 4.511719h-260.886719c-2.445312 0-4.507812-2.066406-4.507812-4.511719v-7.65625h269.90625zm17.414062-60.199219c2.445312 0 4.511719 2.0625 4.511719 4.507813v28.523437c0 2.445313-2.066407 4.511719-4.511719 4.511719-6.21875 0-300.742188 0-304.738281 0-2.445313 0-4.511719-2.066406-4.511719-4.511719v-28.523437c0-2.441406 2.066406-4.507813 4.511719-4.507813zm-309.25-357.085937v-28.523437c0-2.445313 2.066406-4.507813 4.511719-4.507813h304.738281c2.445312 0 4.511719 2.0625 4.511719 4.507813v28.523437c0 2.445313-2.066407 4.507813-4.511719 4.507813-6.21875 0-300.742188 0-304.738281 0-2.445313 0-4.511719-2.0625-4.511719-4.507813zm0 0" data-original="#000000" class="active-path" data-old_color="#ffd15c" fill="#ffd15c"/></g> </svg>
