<svg xmlns="http://www.w3.org/2000/svg" viewBox="0 0 118.67 118.67"><defs><style>.cls-1{isolation:isolate;}.cls-10,.cls-2,.cls-3,.cls-4,.cls-5,.cls-6,.cls-7,.cls-8,.cls-9{fill:#b3897c;}.cls-3{opacity:0.35;}.cls-10,.cls-3,.cls-4,.cls-5,.cls-6,.cls-7,.cls-8,.cls-9{mix-blend-mode:multiply;}.cls-4{opacity:0.6;}.cls-5{opacity:0.4;}.cls-6{opacity:0.75;}.cls-7{opacity:0.15;}.cls-8{opacity:0.45;}.cls-9{opacity:0.25;}.cls-10{opacity:0.7;}</style></defs><title>JUPTIER</title><g class="cls-1"><g id="隔离模式"><g id="_编组_" data-name="&lt;编组&gt;"><circle id="_路径_" data-name="&lt;路径&gt;" class="cls-2" cx="59.33" cy="59.33" r="59.33"/><path id="_路径_2" data-name="&lt;路径&gt;" class="cls-3" d="M572.19,67.84c-.17.33-.34.66-.51,1,17.2-.33,36.4-.42,56.67-.42,17.38,0,34,0,49.2.26-.17-.34-.34-.69-.53-1-14.91-.53-31.89-.81-49.93-.81C607,66.83,588.25,67.18,572.19,67.84Z" transform="translate(-565.33 -36.2)"/><path id="_路径_3" data-name="&lt;路径&gt;" class="cls-4" d="M583.63,52.7c13.46-.82,28.42-1.28,44.19-1.28,13.2,0,25.82.32,37.48.91q-1-.92-2-1.79c-11.06-.87-23.42-1.36-36.48-1.36-15,0-29,.64-41.28,1.76Q584.57,51.8,583.63,52.7Z" transform="translate(-565.33 -36.2)"/><path id="_路径_4" data-name="&lt;路径&gt;" class="cls-5" d="M623.66,147.2a255.4,255.4,0,0,1-31.56-2.07q2.41,1.59,5,2.94a254.47,254.47,0,0,0,27.58,1.47,254.5,254.5,0,0,0,27.59-1.47,59.3,59.3,0,0,0,5.27-3.13A266.35,266.35,0,0,1,623.66,147.2Z" transform="translate(-565.33 -36.2)"/><path id="_路径_5" data-name="&lt;路径&gt;" class="cls-6" d="M674.62,63.55A63.35,63.35,0,0,1,577.91,132a59.32,59.32,0,0,0,96.71-68.5Z" transform="translate(-565.33 -36.2)"/><path id="_路径_6" data-name="&lt;路径&gt;" class="cls-7" d="M565.33,95.54c0,1.23,0,2.45.12,3.67H683.87c.07-1.21.12-2.43.12-3.67,0-.78,0-1.56-.06-2.33H565.39C565.36,94,565.33,94.76,565.33,95.54Z" transform="translate(-565.33 -36.2)"/><path id="_路径_7" data-name="&lt;路径&gt;" class="cls-8" d="M682.15,110.28q-10.59.4-21.75.6a9.28,9.28,0,0,0-16.23.22q-10.81.1-22,.09c-19.15,0-37.6-.11-54.93-.63q.68,2.59,1.58,5.08c17,1.41,35.58,2.15,55.07,2.15q10.77,0,21.13-.3a9.11,9.11,0,0,0,7.3,3.39,9,9,0,0,0,7.7-4c7.06-.36,13.91-.83,20.52-1.4C681.16,113.78,681.7,112.05,682.15,110.28Z" transform="translate(-565.33 -36.2)"/><path id="_路径_8" data-name="&lt;路径&gt;" class="cls-9" d="M624.66,128.87c-9.34,0-18.4-.32-27-.91a6,6,0,0,0-1.54-1.46c-2.4-1.58-5.41-1.22-6.77.78-5.53-.51-10.86-1.13-15.92-1.86a59.43,59.43,0,0,0,3.59,5.46c4.21.91,8.69,1.7,13.38,2.36a6.19,6.19,0,0,0,.84.67,5.2,5.2,0,0,0,5.83.16,254.46,254.46,0,0,0,27.61,1.47,229.86,229.86,0,0,0,47.66-4.66,59.44,59.44,0,0,0,3.59-5.46A362.55,362.55,0,0,1,624.66,128.87Z" transform="translate(-565.33 -36.2)"/><path id="_路径_9" data-name="&lt;路径&gt;" class="cls-10" d="M683,84.47q-.43-2.25-1-4.45c-16.79-1.2-35.13-1.82-54.34-1.82-13.75,0-27,.33-39.66,1a5,5,0,0,0-6.35-2.88A5.35,5.35,0,0,0,578,79.73c-3.65.23-7.25.49-10.76.77-.37,1.43-.68,2.88-.95,4.35,4.27-.15,8.63-.28,13-.38a5.31,5.31,0,0,0,5.06,1,5.58,5.58,0,0,0,2-1.15C600.2,84,614.53,84,629.3,84,648,84,666,84,683,84.47Z" transform="translate(-565.33 -36.2)"/></g></g></g></svg>