<svg xmlns="http://www.w3.org/2000/svg" viewBox="0 0 22.85 22.85"><defs><style>.cls-1{isolation:isolate;}.cls-2{fill:#ff304c;}.cls-3,.cls-4,.cls-5,.cls-6{fill:#15193d;mix-blend-mode:hard-light;}.cls-3{opacity:0.35;}.cls-4{opacity:0.3;}.cls-5{opacity:0.4;}.cls-6{opacity:0.5;}</style></defs><title>MARS</title><g class="cls-1"><g id="隔离模式"><g id="_编组_" data-name="&lt;编组&gt;"><circle id="_路径_" data-name="&lt;路径&gt;" class="cls-2" cx="11.42" cy="11.42" r="11.42"/><ellipse id="_路径_2" data-name="&lt;路径&gt;" class="cls-3" cx="449.77" cy="564.64" rx="1.55" ry="1.39" transform="translate(-587.8 -400.67) rotate(-17.29)"/><ellipse id="_路径_3" data-name="&lt;路径&gt;" class="cls-4" cx="442.92" cy="573.48" rx="1.09" ry="2.01" transform="translate(-539.61 -467.05) rotate(-10.76)"/><ellipse id="_路径_4" data-name="&lt;路径&gt;" class="cls-5" cx="449.93" cy="575.39" rx="1.62" ry="1.74" transform="translate(-719 67.12) rotate(-56.02)"/><ellipse id="_路径_5" data-name="&lt;路径&gt;" class="cls-4" cx="454.37" cy="569.9" rx="1.9" ry="2.01" transform="translate(-631.43 -328.46) rotate(-23.76)"/><ellipse id="_路径_6" data-name="&lt;路径&gt;" class="cls-6" cx="458.36" cy="563.78" rx="0.87" ry="2.01" transform="translate(-698.81 -114.72) rotate(-41.49)"/><ellipse id="_路径_7" data-name="&lt;路径&gt;" class="cls-4" cx="444.71" cy="564.22" rx="1.34" ry="0.58" transform="translate(-710.12 -70.46) rotate(-45.77)"/><ellipse id="_路径_8" data-name="&lt;路径&gt;" class="cls-3" cx="449.49" cy="572.12" rx="0.66" ry="0.67" transform="translate(-586.15 430.61) rotate(-86.94)"/><path id="_路径_9" data-name="&lt;路径&gt;" class="cls-3" d="M459.78,563.1a12.54,12.54,0,0,1,1.19,5.33c0,.31,0,.62,0,.92l-.1,0c-.6,0-1.16.73-1.24,1.74a2,2,0,0,0,.58,1.76,12.62,12.62,0,0,1-3.61,5.17,3.54,3.54,0,0,0-1.79.22c-1.18.44-1.95,1.29-1.8,1.93a12.58,12.58,0,0,1-4.25.87c0-.29-.26-.67-.76-.9s-1.11-.22-1.25.08.05.51.35.75a13.22,13.22,0,0,1-1.79-.32,11.42,11.42,0,0,0,14.49-17.54Z" transform="translate(-440.34 -559.81)"/></g></g></g></svg>