<svg xmlns="http://www.w3.org/2000/svg" viewBox="0 0 30.4 30.4"><defs><style>.cls-1{isolation:isolate;}.cls-2,.cls-3{fill:#c7725c;}.cls-3{opacity:0.75;mix-blend-mode:multiply;}</style></defs><title>MERCURY</title><g class="cls-1"><g id="隔离模式"><g id="_编组_" data-name="&lt;编组&gt;"><circle id="_路径_" data-name="&lt;路径&gt;" class="cls-2" cx="15.2" cy="15.2" r="15.2"/><path id="_路径_2" data-name="&lt;路径&gt;" class="cls-3" d="M413.11,143.06a15.2,15.2,0,0,1-23,19.63,15.2,15.2,0,1,0,23-19.63Z" transform="translate(-387.52 -138.96)"/><ellipse id="_路径_3" data-name="&lt;路径&gt;" class="cls-3" cx="15.88" cy="2.91" rx="3.29" ry="1.46"/><ellipse id="_路径_4" data-name="&lt;路径&gt;" class="cls-3" cx="405.9" cy="162.67" rx="3.29" ry="2.34" transform="translate(-418.7 10.3) rotate(-20.08)"/><ellipse id="_路径_5" data-name="&lt;路径&gt;" class="cls-3" cx="393.82" cy="158.3" rx="2.72" ry="2.88" transform="translate(-416.68 54.64) rotate(-26.67)"/><ellipse id="_路径_6" data-name="&lt;路径&gt;" class="cls-3" cx="410.62" cy="151" rx="2.2" ry="2.72" transform="translate(-414.24 -0.08) rotate(-18.6)"/><ellipse id="_路径_7" data-name="&lt;路径&gt;" class="cls-3" cx="400.03" cy="157.93" rx="1.37" ry="1.46" transform="translate(-415.85 57.4) rotate(-26.67)"/><ellipse id="_路径_8" data-name="&lt;路径&gt;" class="cls-3" cx="402.67" cy="149.71" rx="0.9" ry="0.95" transform="translate(-411.88 57.68) rotate(-26.67)"/><ellipse id="_路径_9" data-name="&lt;路径&gt;" class="cls-3" cx="393.82" cy="146.61" rx="1.86" ry="1.27" transform="translate(-343.8 240.08) rotate(-54)"/></g></g></g></svg>