<svg xmlns="http://www.w3.org/2000/svg" viewBox="0 0 738.5 214.76"><defs><style>.cls-1{isolation:isolate;}.cls-2{fill:none;stroke:#b5cbfd;stroke-miterlimit:10;stroke-width:0.5px;}.cls-3{fill:#b3897c;}.cls-4{fill:#c7725c;}.cls-5{fill:#ff304c;}.cls-14,.cls-6{fill:#ff6137;}.cls-7{fill:#0070ff;}.cls-8{fill:#73b0ff;}.cls-9{fill:#0a52fa;}.cls-10{fill:#c29bd3;}.cls-11{fill:#ae79c5;}.cls-12{fill:#ff815f;}.cls-13{fill:#ffd743;}.cls-14{opacity:0.5;mix-blend-mode:color-burn;}</style></defs><title>SOLAR</title><g class="cls-1"><g id="隔离模式"><g id="_编组_" data-name="&lt;编组&gt;"><path id="_路径_" data-name="&lt;路径&gt;" class="cls-2" d="M300.08,484.23c-17.57-6.45-28-14.42-28-23.05,0-17.13,40.91-31.67,97.75-36.87" transform="translate(-45.75 -353.71)"/><path id="_路径_2" data-name="&lt;路径&gt;" class="cls-2" d="M472.19,439.07c26.44,4.87,43.81,13.07,43.81,22.37" transform="translate(-45.75 -353.71)"/><path id="_路径_3" data-name="&lt;路径&gt;" class="cls-2" d="M167,461.09c0-39.76,111-72,248-72,128.41,0,234,28.33,246.72,64.64" transform="translate(-45.75 -353.71)"/><path id="_路径_4" data-name="&lt;路径&gt;" class="cls-2" d="M447,408.9c85.56,4.39,150.55,26.09,150.55,52.19,0,12.63-15.23,24.24-40.65,33.34" transform="translate(-45.75 -353.71)"/><ellipse id="_路径_5" data-name="&lt;路径&gt;" class="cls-2" cx="369.25" cy="107.38" rx="214" ry="62.13"/><path id="_路径_6" data-name="&lt;路径&gt;" class="cls-2" d="M170.6,505.89c-28.25-13-44.6-28.33-44.6-44.8,0-46.34,129.39-83.9,289-83.9s289,37.56,289,83.9" transform="translate(-45.75 -353.71)"/><path id="_路径_7" data-name="&lt;路径&gt;" class="cls-2" d="M46,461.09C46,401.92,211.21,354,415,354s369,48,369,107.13c0,24.95-29.37,47.9-78.62,66.11" transform="translate(-45.75 -353.71)"/><path id="_路径_8" data-name="&lt;路径&gt;" class="cls-2" d="M92.47,445.36c25.82-44.95,160.39-79.2,322.53-79.2,180.6,0,327,42.5,327,94.94" transform="translate(-45.75 -353.71)"/><path id="_路径_9" data-name="&lt;路径&gt;" class="cls-2" d="M232.44,461.09c0-26.3,66-48.13,152.54-52.29" transform="translate(-45.75 -353.71)"/><path id="_路径_10" data-name="&lt;路径&gt;" class="cls-2" d="M705.38,527.2c-67.56,25-172.51,41-290.37,41-203.79,0-369-48-369-107.13" transform="translate(-45.75 -353.71)"/><path id="_路径_11" data-name="&lt;路径&gt;" class="cls-2" d="M742,461.09C742,513.52,595.6,556,415,556S88,513.52,88,461.09a31.33,31.33,0,0,1,4.47-15.73" transform="translate(-45.75 -353.71)"/><circle id="_路径_12" data-name="&lt;路径&gt;" class="cls-3" cx="608.92" cy="90.05" r="23.33"/><path id="_路径_13" data-name="&lt;路径&gt;" class="cls-2" d="M661.72,453.73a22.17,22.17,0,0,1,1.28,7.36c0,39.76-111,72-248,72s-248-32.24-248-72" transform="translate(-45.75 -353.71)"/><circle id="_路径_14" data-name="&lt;路径&gt;" class="cls-4" cx="469.58" cy="107.71" r="6"/><circle id="_路径_15" data-name="&lt;路径&gt;" class="cls-5" cx="322.92" cy="168.05" r="4"/><circle id="_路径_16" data-name="&lt;路径&gt;" class="cls-6" cx="250.92" cy="129.38" r="8.67"/><circle id="_路径_17" data-name="&lt;路径&gt;" class="cls-7" cx="515.58" cy="138.38" r="6.67"/><circle id="_路径_18" data-name="&lt;路径&gt;" class="cls-8" cx="49.58" cy="87.38" r="11.33"/><circle id="_路径_19" data-name="&lt;路径&gt;" class="cls-9" cx="666.25" cy="170.71" r="10.67"/><g id="_编组_2" data-name="&lt;编组&gt;"><circle id="_路径_20" data-name="&lt;路径&gt;" class="cls-10" cx="112.92" cy="145.38" r="19.33"/><path id="_路径_21" data-name="&lt;路径&gt;" class="cls-11" d="M201.72,484.89c-1-3.06-12.59-2.16-28.28,1.75a19.38,19.38,0,0,1,2.28,3.38c4.86-.72,8.06-.56,8.46.66.8,2.44-10,8.18-24.06,12.82s-26.16,6.44-27,4c-.4-1.21,2.08-3.25,6.41-5.56a19,19,0,0,1-.23-2.85c0-.41,0-.82.06-1.22-14.94,6.19-24.79,12.36-23.78,15.42,1.36,4.11,21.73,1.08,45.51-6.76S203.07,489,201.72,484.89Z" transform="translate(-45.75 -353.71)"/></g><g id="_编组_3" data-name="&lt;编组&gt;"><circle id="_路径_22" data-name="&lt;路径&gt;" class="cls-12" cx="370.25" cy="103.38" r="60.33"/><circle id="_路径_23" data-name="&lt;路径&gt;" class="cls-13" cx="370.25" cy="103.38" r="57"/><ellipse id="_路径_24" data-name="&lt;路径&gt;" class="cls-14" cx="400.67" cy="415.09" rx="6.67" ry="5.33" transform="translate(-174.25 -168.45) rotate(-22.54)"/><ellipse id="_路径_25" data-name="&lt;路径&gt;" class="cls-14" cx="376" cy="443.76" rx="14" ry="10.67" transform="translate(-174.88 378.39) rotate(-79.44)"/><ellipse id="_路径_26" data-name="&lt;路径&gt;" class="cls-14" cx="438.76" cy="428.59" rx="7.68" ry="8.67" transform="translate(-209.19 191.33) rotate(-55.27)"/><circle id="_路径_27" data-name="&lt;路径&gt;" class="cls-14" cx="386.25" cy="100.05" r="3.33"/><circle id="_路径_28" data-name="&lt;路径&gt;" class="cls-14" cx="369.58" cy="111.38" r="10"/><path id="_路径_29" data-name="&lt;路径&gt;" class="cls-14" d="M465.73,429.25A60.2,60.2,0,0,1,463,469.71l-.09-.09c-4.05-3.47-11.61-1.3-16.88,4.85s-6.26,14-2.2,17.43a6.52,6.52,0,0,0,1.51,1,63.45,63.45,0,0,1-30.52,13.5c1-2.95-2.39-6.79-7.57-8.61s-10.28-.91-11.31,2c-.8,2.28,1,5.1,4.31,7.11a64.09,64.09,0,0,1-18.2-4,57,57,0,0,0,83.72-73.6Z" transform="translate(-45.75 -353.71)"/></g><path id="_路径_30" data-name="&lt;路径&gt;" class="cls-2" d="M516,461.44c0,14.94-44.77,27-100,27s-100-12.11-100-27c0-9.12,16.71-17.19,42.3-22.09" transform="translate(-45.75 -353.71)"/><path id="_路径_31" data-name="&lt;路径&gt;" class="cls-2" d="M467,424.79c54.28,5.57,92.87,19.76,92.87,36.39,0,21.49-64.42,38.91-143.88,38.91-47.56,0-89.73-6.24-115.92-15.86" transform="translate(-45.75 -353.71)"/><path id="_路径_32" data-name="&lt;路径&gt;" class="cls-2" d="M556.91,494.43c-33.47,12-84.61,19.66-141.91,19.66-100.82,0-182.56-23.73-182.56-53" transform="translate(-45.75 -353.71)"/><path id="_路径_33" data-name="&lt;路径&gt;" class="cls-2" d="M704,461.09c0,46.34-129.39,83.9-289,83.9-102.87,0-193.18-15.6-244.4-39.1" transform="translate(-45.75 -353.71)"/></g></g></g></svg>