<svg xmlns="http://www.w3.org/2000/svg" xmlns:xlink="http://www.w3.org/1999/xlink" viewBox="0 0 430.98 430.98"><defs><style>.cls-1{fill:none;}.cls-2{isolation:isolate;}.cls-3{clip-path:url(#clip-path);}.cls-4{fill:#ff815f;}.cls-5{fill:#ffd743;}.cls-6{fill:#ff6137;opacity:0.5;mix-blend-mode:color-burn;}</style><clipPath id="clip-path" transform="translate(113.98 252.47)"><rect id="_矩形_" data-name="&lt;矩形&gt;" class="cls-1" width="800" height="800"/></clipPath></defs><title>SUN</title><g class="cls-2"><g id="隔离模式"><g id="_剪切组_" data-name="&lt;剪切组&gt;"><g class="cls-3"><g id="_编组_" data-name="&lt;编组&gt;"><circle id="_路径_" data-name="&lt;路径&gt;" class="cls-4" cx="215.49" cy="215.49" r="215.49"/><circle id="_路径_2" data-name="&lt;路径&gt;" class="cls-5" cx="215.49" cy="215.49" r="203.58"/><ellipse id="_路径_3" data-name="&lt;路径&gt;" class="cls-6" cx="46.74" cy="-186.99" rx="23.81" ry="19.05" transform="translate(189.22 256.1) rotate(-22.54)"/><ellipse id="_路径_4" data-name="&lt;路径&gt;" class="cls-6" cx="-41.36" cy="-84.6" rx="50" ry="38.1" transform="translate(163.37 142.71) rotate(-79.44)"/><ellipse id="_路径_5" data-name="&lt;路径&gt;" class="cls-6" cx="182.79" cy="-138.78" rx="27.42" ry="30.95" transform="matrix(0.57, -0.82, 0.82, 0.57, 306.69, 342.98)"/><circle id="_路径_6" data-name="&lt;路径&gt;" class="cls-6" cx="272.63" cy="203.58" r="11.91"/><circle id="_路径_7" data-name="&lt;路径&gt;" class="cls-6" cx="213.11" cy="244.06" r="35.72"/><path id="_路径_8" data-name="&lt;路径&gt;" class="cls-6" d="M279.14-136.42a214.84,214.84,0,0,1,8.09,58.37,214.44,214.44,0,0,1-18,86.14c-.11-.1-.2-.22-.32-.32-14.48-12.41-41.48-4.65-60.3,17.32s-22.34,49.84-7.86,62.24a23.28,23.28,0,0,0,5.4,3.42,226.61,226.61,0,0,1-109,48.2c3.5-10.53-8.54-24.25-27.05-30.74S33.4,105,29.71,115.5c-2.85,8.14,3.72,18.22,15.41,25.41a228.9,228.9,0,0,1-65-14.46,202.66,202.66,0,0,0,121.4,40.16C213.94,166.6,305.09,75.46,305.09-37A202.59,202.59,0,0,0,279.14-136.42Z" transform="translate(113.98 252.47)"/></g></g></g></g></g></svg>