<?xml version="1.0" encoding="iso-8859-1"?>
<!-- Generator: Adobe Illustrator 19.0.0, SVG Export Plug-In . SVG Version: 6.00 Build 0)  -->
<svg version="1.1" id="Layer_1" xmlns="http://www.w3.org/2000/svg" xmlns:xlink="http://www.w3.org/1999/xlink" x="0px" y="0px"
	 viewBox="0 0 512 512" style="enable-background:new 0 0 512 512;" xml:space="preserve">
<polygon style="fill:#FFE98F;" points="341.333,384 426.667,341.333 85.333,341.333 170.667,384 99.556,497.778 256,497.778 
	412.444,497.778 "/>
<polygon style="fill:#FFDA44;" points="426.667,341.333 256,341.333 256,497.778 412.444,497.778 341.333,384 "/>
<rect x="234.667" y="384" style="fill:#FFF8DA;" width="42.667" height="113.778"/>
<rect x="184.889" y="213.333" style="fill:#1E2E3B;" width="142.222" height="56.889"/>
<path style="fill:#FF5023;" d="M298.667,56.889c0-23.565-19.102-42.667-42.667-42.667c-23.565,0-42.667,19.102-42.667,42.667
	c0,15.791,8.583,29.567,21.333,36.945V128h42.667V93.834C290.082,86.455,298.667,72.68,298.667,56.889z"/>
<path style="fill:#BF3C1A;" d="M256,14.222V128h21.333V93.834c12.749-7.378,21.333-21.154,21.333-36.945
	C298.667,33.324,279.565,14.222,256,14.222z"/>
<rect x="85.333" y="341.333" style="fill:#1E2E3B;" width="341.333" height="42.667"/>
<path style="fill:#BFE4F8;" d="M426.667,277.333H384c0-70.579-57.421-128-128-128s-128,57.421-128,128H85.333
	c0-94.107,76.56-170.667,170.667-170.667S426.667,183.226,426.667,277.333z"/>
<g>
	<path style="fill:#93C7EF;" d="M256,106.667v42.667c70.579,0,128,57.421,128,128h42.667
		C426.667,183.226,350.106,106.667,256,106.667z"/>
	<path style="fill:#93C7EF;" d="M512,298.667c0,23.563,0,56.889,0,56.889H0c0,0,0-33.326,0-56.889l0,0
		C0,275.103,19.102,256,42.667,256h426.667C492.898,256,512,275.103,512,298.667L512,298.667z"/>
</g>
<g>
	<circle style="fill:#FFDA44;" cx="64" cy="305.778" r="21.333"/>
	<circle style="fill:#FFDA44;" cx="160" cy="305.778" r="21.333"/>
</g>
<path style="fill:#5A8BB0;" d="M469.333,256H256v99.556h256c0,0,0-33.326,0-56.889C512,275.103,492.898,256,469.333,256z"/>
<circle style="fill:#FFDA44;" cx="256" cy="305.778" r="21.333"/>
<g>
	<path style="fill:#FF9811;" d="M256,284.444c11.782,0,21.333,9.552,21.333,21.333c0,11.782-9.552,21.333-21.333,21.333"/>
	<circle style="fill:#FF9811;" cx="352" cy="305.778" r="21.333"/>
	<circle style="fill:#FF9811;" cx="448" cy="305.778" r="21.333"/>
</g>
<g>
</g>
<g>
</g>
<g>
</g>
<g>
</g>
<g>
</g>
<g>
</g>
<g>
</g>
<g>
</g>
<g>
</g>
<g>
</g>
<g>
</g>
<g>
</g>
<g>
</g>
<g>
</g>
<g>
</g>
</svg>
